<?xml version="1.0" encoding="utf-8"?>
<!-- Generator: Adobe Illustrator 19.1.0, SVG Export Plug-In . SVG Version: 6.00 Build 0)  -->
<svg version="1.1" id="Layer_1" xmlns="http://www.w3.org/2000/svg" xmlns:xlink="http://www.w3.org/1999/xlink" x="0px" y="0px"
	 viewBox="0 0 300 29.2" style="enable-background:new 0 0 300 29.2;" xml:space="preserve">
<style type="text/css">
	.st0{fill:#FFFFFF;}
</style>
<path class="st0" d="M287.2,22.4h2.7v-9c0-0.5,0.1-0.9,0.2-1.3c0.5-1.5,1.9-2.8,3.7-2.8c2.6,0,3.5,2,3.5,4.4v8.7h2.7v-9
	c0-5.2-3.2-6.4-5.3-6.4c-2.5,0-4.2,1.4-5,2.8h-0.1l-0.2-2.5h-2.4c0.1,1.2,0.1,2.5,0.1,4.1V22.4z M277,9.1c3.2,0,4.5,3.2,4.5,5.8
	c0,3.4-2,5.8-4.6,5.8c-2.7,0-4.6-2.5-4.6-5.8C272.4,12,273.8,9.1,277,9.1 M277.1,7c-4.2,0-7.4,2.9-7.4,8c0,4.7,3.1,7.7,7.2,7.7
	c3.6,0,7.5-2.4,7.5-8C284.3,10.1,281.4,7,277.1,7 M265.4,1.4c-1,0-1.7,0.7-1.7,1.7c0,0.9,0.7,1.7,1.6,1.7c1.1,0,1.8-0.7,1.7-1.7
	C267.1,2.2,266.5,1.4,265.4,1.4 M266.8,7.4h-2.7v15h2.7V7.4z M255.2,4.6v2.8h-2.3v2.1h2.3v8.2c0,1.8,0.3,3.1,1.1,3.9
	c0.7,0.7,1.7,1.2,2.9,1.2c1.1,0,1.9-0.2,2.4-0.4l-0.1-2c-0.4,0.1-0.8,0.2-1.6,0.2c-1.5,0-2-1.1-2-2.9V9.4h3.9V7.4h-3.9V3.8
	L255.2,4.6z M250.8,19.8c-0.8,0.3-1.8,0.7-3.4,0.7c-3,0-5.2-2.1-5.2-5.6c0-3.1,1.9-5.7,5.3-5.7c1.5,0,2.5,0.3,3.2,0.7l0.6-2.1
	c-0.7-0.4-2.2-0.8-3.8-0.8c-4.9,0-8.1,3.4-8.1,8c0,4.6,2.9,7.7,7.5,7.7c2,0,3.6-0.5,4.3-0.9L250.8,19.8z M236.6,7.4h-2.7v9.2
	c0,0.5-0.1,1-0.2,1.4c-0.5,1.2-1.8,2.5-3.6,2.5c-2.5,0-3.4-1.9-3.4-4.8V7.4h-2.7v8.8c0,5.3,2.8,6.6,5.2,6.6c2.7,0,4.3-1.6,5-2.8h0.1
	l0.2,2.5h2.4c-0.1-1.2-0.1-2.5-0.1-4.1V7.4z M217.5,16.1c0,0.4,0,0.8-0.1,1.2c-0.5,2-2.2,3.3-4,3.3c-2.9,0-4.4-2.5-4.4-5.6
	c0-3.3,1.7-5.8,4.5-5.8c2,0,3.5,1.4,3.9,3.2c0.1,0.3,0.1,0.8,0.1,1.1V16.1z M217.5,0.3v9h-0.1c-0.7-1.2-2.2-2.3-4.5-2.3
	c-3.7,0-6.8,3.1-6.7,8.1c0,4.6,2.8,7.6,6.4,7.6c2.5,0,4.3-1.3,5.1-2.9h0.1l0.1,2.6h2.5c-0.1-1-0.1-2.5-0.1-3.9V0.3H217.5z
	 M196.9,9.1c3.2,0,4.5,3.2,4.5,5.8c0,3.4-2,5.8-4.6,5.8c-2.7,0-4.6-2.5-4.6-5.8C192.3,12,193.7,9.1,196.9,9.1 M197,7
	c-4.2,0-7.4,2.9-7.4,8c0,4.7,3.1,7.7,7.2,7.7c3.6,0,7.5-2.4,7.5-8C204.2,10.1,201.3,7,197,7 M181.2,22.4h2.7v-8
	c0-0.5,0.1-0.9,0.1-1.3c0.4-2,1.7-3.5,3.7-3.5c0.4,0,0.7,0,0.9,0.1V7.1C188.4,7,188.2,7,187.8,7c-1.8,0-3.5,1.3-4.2,3.3h-0.1
	l-0.1-2.9h-2.4c0.1,1.4,0.1,2.9,0.1,4.7V22.4z M166.8,13.7c0-0.4,0.1-0.8,0.2-1.1c0.5-2,2.3-3.4,4.1-3.4c2.9,0,4.5,2.6,4.5,5.6
	c0,3.4-1.7,5.8-4.6,5.8c-2,0-3.6-1.3-4.1-3.2c-0.1-0.3-0.1-0.7-0.1-1.1V13.7z M164.1,28.5h2.7v-8.2h0.1c0.9,1.5,2.6,2.4,4.6,2.4
	c3.5,0,6.8-2.7,6.8-8.1c0-4.6-2.7-7.6-6.4-7.6c-2.5,0-4.2,1.1-5.3,2.9h-0.1l-0.1-2.6H164c0.1,1.4,0.1,3,0.1,4.9V28.5z M150.7,13.4
	c0.2-1.9,1.4-4.4,4.2-4.4c3.1,0,3.8,2.7,3.8,4.4H150.7z M161.2,15.4c0-0.3,0.1-0.7,0.1-1.3c0-2.8-1.3-7.1-6.2-7.1
	c-4.4,0-7,3.6-7,8.1c0,4.5,2.8,7.6,7.4,7.6c2.4,0,4-0.5,5-1l-0.5-2c-1,0.4-2.2,0.8-4.2,0.8c-2.7,0-5.1-1.5-5.2-5.2H161.2z
	 M135.7,3.6c0.4-0.1,1.4-0.2,2.7-0.2c2.9,0,4.8,1.2,4.8,3.9c0,2.4-1.8,4-4.7,4h-2.8V3.6z M133,22.4h2.7v-9.1h2.5
	c2.5,0.1,3.6,1.2,4.2,4.1c0.6,2.6,1.1,4.4,1.4,5h2.8c-0.4-0.8-0.9-2.8-1.6-5.7c-0.5-2.2-1.5-3.7-3.1-4.2v-0.1
	c2.2-0.7,3.9-2.6,3.9-5.3c0-1.6-0.6-3-1.6-4c-1.3-1.2-3.2-1.7-6.1-1.7c-1.9,0-3.8,0.2-5.2,0.4V22.4z M120.3,22.4V9.4h3.6V7.4h-3.6
	V6.5c0-2.3,0.6-4.3,2.9-4.3c0.8,0,1.3,0.2,1.7,0.3l0.4-2.1C124.8,0.2,123.9,0,123,0c-1.3,0-2.6,0.4-3.7,1.4
	c-1.3,1.2-1.7,3.1-1.7,5.2v0.7h-2.1v2.1h2.1v12.9H120.3z M107.2,9.1c3.2,0,4.5,3.2,4.5,5.8c0,3.4-2,5.8-4.6,5.8
	c-2.7,0-4.6-2.5-4.6-5.8C102.6,12,104,9.1,107.2,9.1 M107.3,7c-4.2,0-7.4,2.9-7.4,8c0,4.7,3.1,7.7,7.2,7.7c3.6,0,7.5-2.4,7.5-8
	C114.5,10.1,111.6,7,107.3,7 M77.7,7.4l5.6,13.8c0.1,0.3,0.2,0.6,0.2,0.7s-0.1,0.4-0.2,0.7c-0.6,1.4-1.6,2.5-2.3,3
	c-0.8,0.7-1.7,1.1-2.4,1.3l0.7,2.3c0.7-0.1,2-0.6,3.4-1.8c1.9-1.6,3.2-4.3,5.2-9.4l4.1-10.7H89l-3,8.8c-0.4,1.1-0.7,2.2-1,3.1H85
	c-0.2-0.9-0.6-2.1-1-3.1l-3.3-8.9H77.7z M72.9,16c0,0.5-0.1,1-0.2,1.5c-0.6,1.7-2.1,2.8-3.8,2.8c-2.9,0-4.4-2.5-4.4-5.4
	c0-3.5,1.9-5.7,4.5-5.7c2,0,3.3,1.3,3.8,2.9c0.1,0.4,0.2,0.8,0.2,1.2V16z M75.6,11.5c0-1.8,0.1-3,0.1-4.1h-2.4l-0.1,2.3h-0.1
	C72.5,8.4,71.1,7,68.4,7c-3.4,0-6.8,2.9-6.8,8c0,4.2,2.7,7.3,6.4,7.3c2.3,0,3.9-1.1,4.8-2.5h0.1v1.7c0,3.8-2,5.2-4.8,5.2
	c-1.9,0-3.4-0.6-4.4-1.2L63,27.6c1.2,0.8,3.2,1.2,5,1.2c1.9,0,4-0.4,5.5-1.8c1.5-1.3,2.1-3.4,2.1-6.9V11.5z M52.4,9.1
	c3.2,0,4.5,3.2,4.5,5.8c0,3.4-2,5.8-4.6,5.8c-2.7,0-4.6-2.5-4.6-5.8C47.8,12,49.2,9.1,52.4,9.1 M52.5,7C48.3,7,45,10,45,15
	c0,4.7,3.1,7.7,7.2,7.7c3.6,0,7.5-2.4,7.5-8C59.7,10.1,56.8,7,52.5,7 M39.3,22.4h2.7v-22h-2.7V22.4z M29.1,9.1
	c3.2,0,4.5,3.2,4.5,5.8c0,3.4-2,5.8-4.6,5.8c-2.7,0-4.6-2.5-4.6-5.8C24.5,12,25.8,9.1,29.1,9.1 M29.1,7c-4.2,0-7.4,2.9-7.4,8
	c0,4.7,3.1,7.7,7.2,7.7c3.6,0,7.5-2.4,7.5-8C36.4,10.1,33.5,7,29.1,7 M17.5,1.4c-1,0-1.7,0.7-1.7,1.7c0,0.9,0.7,1.7,1.6,1.7
	c1.1,0,1.8-0.7,1.7-1.7C19.2,2.2,18.5,1.4,17.5,1.4 M18.8,7.4h-2.7v15h2.7V7.4z M2.7,12.4h2.2c2.9,0,5.4,1.2,5.4,4
	c0,3-2.6,4.1-5.4,4.1c-1,0-1.7,0-2.3-0.1V12.4z M2.7,3.6c0.4-0.1,1.1-0.2,2.4-0.2c2.7,0,4.6,1,4.6,3.4c0,2-1.7,3.5-4.5,3.5H2.7V3.6z
	 M0,22.3c0.9,0.1,2.3,0.2,4.2,0.2c3.4,0,5.8-0.6,7.2-2c1.1-1,1.8-2.4,1.8-4.2c0-3.1-2.3-4.7-4.3-5.2v-0.1c2.2-0.8,3.5-2.6,3.5-4.6
	c0-1.6-0.7-2.9-1.7-3.7c-1.3-1.1-3-1.5-5.7-1.5C3,1.3,1.2,1.5,0,1.7V22.3z"/>
</svg>
