<svg id="Layer_1" data-name="Layer 1" xmlns="http://www.w3.org/2000/svg" viewBox="0 0 397.72 89.11"><defs><style>.cls-1{fill:#1d1d1b;}.cls-2{fill:#1bb097;}.cls-3{fill:#009a44;}.cls-4{fill:#a8ad1a;}.cls-5{fill:#007b3e;}.cls-6{fill:#b2930e;}.cls-7{fill:#fab724;}.cls-8{fill:#007041;}.cls-9{fill:#a6641b;}.cls-10{fill:#ee9807;}.cls-11{fill:#ee730a;}.cls-12{fill:#e88202;}.cls-13{fill:#623b2a;}.cls-14{fill:#e6481e;}.cls-15{fill:#9a562b;}.cls-16{fill:#e85112;}.cls-17{fill:#4ccbeb;}.cls-18{fill:#00843d;}.cls-19{fill:#00a499;}.cls-20{fill:#00b5e2;}.cls-21{fill:#285e39;}.cls-22{fill:#4e3629;}.cls-23{fill:#22372b;}.cls-24{fill:#9f2a2b;}.cls-25{fill:#c8152f;}.cls-26{fill:#e32518;}</style></defs><path class="cls-1" d="M332.46,244.86h15a29.14,29.14,0,0,1,8.59,1.2,18.36,18.36,0,0,1,6.73,3.66,16.48,16.48,0,0,1,4.38,6.31,24,24,0,0,1,1.56,9.07,21.87,21.87,0,0,1-1.59,8.68,17,17,0,0,1-4.44,6.18,18.77,18.77,0,0,1-6.76,3.72,28,28,0,0,1-8.53,1.24H332.46Zm14.23,33.33q6.85,0,10.45-3.3t3.6-9.67q0-6.32-3.33-10t-10.72-3.66H340v26.6Z" transform="translate(-253.54 -220.37)"/><path class="cls-1" d="M397.68,280.83l-1,1a11.83,11.83,0,0,1-2.34,1.71,18.17,18.17,0,0,1-3.9,1.63,19.77,19.77,0,0,1-5.68.72,15.89,15.89,0,0,1-6.12-1.14,13.47,13.47,0,0,1-7.72-8,17.82,17.82,0,0,1-1.05-6.25,15.68,15.68,0,0,1,1.05-5.79,14.21,14.21,0,0,1,2.94-4.66,13.7,13.7,0,0,1,4.51-3.12,14.31,14.31,0,0,1,5.79-1.14,13.87,13.87,0,0,1,6.52,1.41,12.07,12.07,0,0,1,4.29,3.69,15.3,15.3,0,0,1,2.34,5.17,24.15,24.15,0,0,1,.72,5.88v1H377a5.78,5.78,0,0,0,.69,2.83,7.25,7.25,0,0,0,1.81,2.16,8.12,8.12,0,0,0,2.52,1.38,8.62,8.62,0,0,0,2.79.48,14.35,14.35,0,0,0,6.19-1.29,8.44,8.44,0,0,0,1.77-1.08q.69-.57,1-.93Zm-6.9-13a6.06,6.06,0,0,0-1.66-4.11,6.55,6.55,0,0,0-2.07-1.45,6.92,6.92,0,0,0-2.88-.57,7.88,7.88,0,0,0-3.09.57,7.46,7.46,0,0,0-2.25,1.45,6.24,6.24,0,0,0-1.39,1.95,5.28,5.28,0,0,0-.48,2.16Z" transform="translate(-253.54 -220.37)"/><path class="cls-1" d="M395.46,256.75h8.17l7.56,20.18,7.57-20.18h7.75l-11.89,28.17h-7.21Z" transform="translate(-253.54 -220.37)"/><path class="cls-1" d="M451.85,280.83l-1,1a11.83,11.83,0,0,1-2.34,1.71,18.05,18.05,0,0,1-3.91,1.63,19.65,19.65,0,0,1-5.67.72,15.94,15.94,0,0,1-6.13-1.14,13.85,13.85,0,0,1-4.71-3.16,13.71,13.71,0,0,1-3-4.83,17.82,17.82,0,0,1-1.05-6.25,15.68,15.68,0,0,1,1.05-5.79,14.21,14.21,0,0,1,2.94-4.66,13.76,13.76,0,0,1,4.5-3.12,14.4,14.4,0,0,1,5.8-1.14,13.8,13.8,0,0,1,6.51,1.41,12,12,0,0,1,4.3,3.69,15.3,15.3,0,0,1,2.34,5.17,24.15,24.15,0,0,1,.72,5.88v1h-21a5.78,5.78,0,0,0,.69,2.83,7.22,7.22,0,0,0,1.8,2.16,8.17,8.17,0,0,0,2.53,1.38,8.62,8.62,0,0,0,2.79.48,14.26,14.26,0,0,0,6.18-1.29,8.28,8.28,0,0,0,1.78-1.08q.69-.57,1.05-.93Zm-6.91-13a5.92,5.92,0,0,0-.42-2.16,6.07,6.07,0,0,0-1.23-1.95,6.55,6.55,0,0,0-2.07-1.45,6.92,6.92,0,0,0-2.88-.57,7.88,7.88,0,0,0-3.09.57,7.51,7.51,0,0,0-2.26,1.45,6.2,6.2,0,0,0-1.38,1.95,5.28,5.28,0,0,0-.48,2.16Z" transform="translate(-253.54 -220.37)"/><path class="cls-1" d="M454.05,244.86h7.09v40.06h-7.09Z" transform="translate(-253.54 -220.37)"/><path class="cls-1" d="M462.91,270.8A15.22,15.22,0,0,1,464,265a14.47,14.47,0,0,1,7.87-8,16.39,16.39,0,0,1,12.31,0,14.39,14.39,0,0,1,7.87,8A15.41,15.41,0,0,1,489,281.4a14.69,14.69,0,0,1-4.78,3.28,16.39,16.39,0,0,1-12.31,0,14.54,14.54,0,0,1-4.77-3.28,15,15,0,0,1-3.1-4.8A15.27,15.27,0,0,1,462.91,270.8Zm15.14,8.95a7.34,7.34,0,0,0,3.54-.81,7.56,7.56,0,0,0,2.49-2.13,9.35,9.35,0,0,0,1.47-2.88,10.31,10.31,0,0,0,0-6.22,8.92,8.92,0,0,0-1.47-2.88,7.71,7.71,0,0,0-2.49-2.1,8.07,8.07,0,0,0-7.09,0,7.71,7.71,0,0,0-2.49,2.1,8.92,8.92,0,0,0-1.47,2.88,10.31,10.31,0,0,0,0,6.22,9.35,9.35,0,0,0,1.47,2.88,7.56,7.56,0,0,0,2.49,2.13A7.36,7.36,0,0,0,478.05,279.75Z" transform="translate(-253.54 -220.37)"/><path class="cls-1" d="M495,256.75h6.85l.18,3.18a12.11,12.11,0,0,1,1.35-1.26,9.85,9.85,0,0,1,1.92-1.2,13.25,13.25,0,0,1,2.52-.9,12.74,12.74,0,0,1,3.15-.36,11.42,11.42,0,0,1,9.55,4.59,15,15,0,0,1,2.35,4.72,19.17,19.17,0,0,1,.78,5.46,14.87,14.87,0,0,1-1,5.65,16,16,0,0,1-2.41,4.08,13.41,13.41,0,0,1-5.25,4,15.67,15.67,0,0,1-5.86,1.14,20.06,20.06,0,0,1-2.37-.12,13.83,13.83,0,0,1-1.8-.33,15.61,15.61,0,0,1-1.5-.48l-1.47-.57v12.55h-7Zm7,21.26q2.1,1.74,6.36,1.74a7.62,7.62,0,0,0,3.43-.75,8,8,0,0,0,2.55-2,8.58,8.58,0,0,0,1.59-2.79,9.89,9.89,0,0,0,.54-3.25,13.82,13.82,0,0,0-.39-3.36,7.61,7.61,0,0,0-1.26-2.73,6.22,6.22,0,0,0-2.25-1.86,7.68,7.68,0,0,0-3.43-.69,6.25,6.25,0,0,0-2.94.69A7.55,7.55,0,0,0,504,264.8a8.27,8.27,0,0,0-1.44,2.37,6.76,6.76,0,0,0-.51,2.49Z" transform="translate(-253.54 -220.37)"/><path class="cls-1" d="M525.67,256.75h6.78l.18,3.18c.36-.4.77-.83,1.24-1.29a7.3,7.3,0,0,1,1.68-1.23,10.84,10.84,0,0,1,2.28-.9,11.08,11.08,0,0,1,3-.36,9.71,9.71,0,0,1,8.47,4.08,13.41,13.41,0,0,1,4.41-3.15,13.73,13.73,0,0,1,5.26-.93q5.34,0,8.19,3.15a12.16,12.16,0,0,1,2.86,8.5v17.12H562.9V267.86a5.94,5.94,0,0,0-1.35-4.17,4.76,4.76,0,0,0-3.69-1.47,6.05,6.05,0,0,0-4.72,2.16,7,7,0,0,0-1.32,2.37,9.15,9.15,0,0,0-.45,2.91v15.26h-7.09V267.86a5.94,5.94,0,0,0-1.35-4.17,4.76,4.76,0,0,0-3.69-1.47,6.07,6.07,0,0,0-2.64.57,6.18,6.18,0,0,0-2.07,1.59,7.06,7.06,0,0,0-1.33,2.37,9.15,9.15,0,0,0-.45,2.91v15.26h-7.08Z" transform="translate(-253.54 -220.37)"/><path class="cls-1" d="M599.71,280.83l-1,1a11.83,11.83,0,0,1-2.34,1.71,18.17,18.17,0,0,1-3.9,1.63,19.72,19.72,0,0,1-5.68.72,15.89,15.89,0,0,1-6.12-1.14,13.47,13.47,0,0,1-7.72-8,17.82,17.82,0,0,1-1.05-6.25,15.68,15.68,0,0,1,1.05-5.79,14.21,14.21,0,0,1,2.94-4.66,13.7,13.7,0,0,1,4.51-3.12,14.31,14.31,0,0,1,5.79-1.14,13.84,13.84,0,0,1,6.52,1.41,12.07,12.07,0,0,1,4.29,3.69,15.3,15.3,0,0,1,2.34,5.17,24.15,24.15,0,0,1,.72,5.88v1h-21a5.78,5.78,0,0,0,.69,2.83,7.22,7.22,0,0,0,1.8,2.16,8.12,8.12,0,0,0,2.52,1.38,8.62,8.62,0,0,0,2.79.48,14.26,14.26,0,0,0,6.19-1.29,8.44,8.44,0,0,0,1.77-1.08q.69-.57,1-.93Zm-6.9-13a5.92,5.92,0,0,0-.42-2.16,6.07,6.07,0,0,0-1.23-1.95,6.6,6.6,0,0,0-2.08-1.45,6.92,6.92,0,0,0-2.88-.57,7.88,7.88,0,0,0-3.09.57,7.46,7.46,0,0,0-2.25,1.45,6.2,6.2,0,0,0-1.38,1.95,5.14,5.14,0,0,0-.49,2.16Z" transform="translate(-253.54 -220.37)"/><path class="cls-1" d="M602.06,256.75h6.78l.18,3.18a15.63,15.63,0,0,1,1.29-1.26,9.53,9.53,0,0,1,1.81-1.23,11,11,0,0,1,2.37-.93,11.42,11.42,0,0,1,3-.36q5.28,0,8,3.15a12.46,12.46,0,0,1,2.76,8.5v17.12h-7.09V267.86a5.64,5.64,0,0,0-1.47-4.17,5.15,5.15,0,0,0-3.81-1.47,6.47,6.47,0,0,0-2.7.57,6.36,6.36,0,0,0-2.17,1.59,7.61,7.61,0,0,0-1.41,2.37,8.17,8.17,0,0,0-.51,2.91v15.26h-7.08Z" transform="translate(-253.54 -220.37)"/><path class="cls-1" d="M621.86,262.45v.07h.06Z" transform="translate(-253.54 -220.37)"/><path class="cls-1" d="M648.26,278.19a12.17,12.17,0,0,1-1.89,1.14,6.19,6.19,0,0,1-2.67.48,2.87,2.87,0,0,1-2.62-1.29,7,7,0,0,1-.81-3.69V262.52h7.57v-5.77h-7.57v-9.13h-7.08v9.13h-6.87a9.1,9.1,0,0,1,1.06,1,10.83,10.83,0,0,1,2.36,4.77h3.45v12.79a17.94,17.94,0,0,0,.48,4.29,8.46,8.46,0,0,0,1.59,3.33,7.23,7.23,0,0,0,2.91,2.14,11.41,11.41,0,0,0,4.39.75,13.14,13.14,0,0,0,4.56-.75,14.38,14.38,0,0,0,4.14-2.5Z" transform="translate(-253.54 -220.37)"/><path class="cls-2" d="M313.85,237.64l3.26-5.65a37.78,37.78,0,0,0-19-5.09v6.53A31.34,31.34,0,0,1,313.85,237.64Z" transform="translate(-253.54 -220.37)"/><path class="cls-3" d="M310.59,243.3l3.26-5.66a31.34,31.34,0,0,0-15.75-4.21V240A24.84,24.84,0,0,1,310.59,243.3Z" transform="translate(-253.54 -220.37)"/><path class="cls-4" d="M313.85,237.64l-3.26,5.66a25,25,0,0,1,9.14,9.14l5.65-3.27A31.64,31.64,0,0,0,313.85,237.64Z" transform="translate(-253.54 -220.37)"/><path class="cls-5" d="M298.1,246.48a18.34,18.34,0,0,1,9.22,2.47l3.27-5.65A24.84,24.84,0,0,0,298.1,240Z" transform="translate(-253.54 -220.37)"/><path class="cls-6" d="M314.08,255.7l5.65-3.26a25,25,0,0,0-9.14-9.14L307.32,249A18.54,18.54,0,0,1,314.08,255.7Z" transform="translate(-253.54 -220.37)"/><path class="cls-7" d="M316.55,264.93h6.52a24.81,24.81,0,0,0-3.34-12.49l-5.65,3.26A18.4,18.4,0,0,1,316.55,264.93Z" transform="translate(-253.54 -220.37)"/><path class="cls-8" d="M304.06,254.6l3.26-5.65a18.34,18.34,0,0,0-9.22-2.47V253A11.91,11.91,0,0,1,304.06,254.6Z" transform="translate(-253.54 -220.37)"/><path class="cls-9" d="M308.43,259l5.65-3.27a18.54,18.54,0,0,0-6.76-6.75l-3.26,5.65A12,12,0,0,1,308.43,259Z" transform="translate(-253.54 -220.37)"/><path class="cls-10" d="M308.43,270.89l5.65,3.27a18.4,18.4,0,0,0,2.47-9.23H310A11.9,11.9,0,0,1,308.43,270.89Z" transform="translate(-253.54 -220.37)"/><path class="cls-11" d="M310,264.93h6.53a18.4,18.4,0,0,0-2.47-9.23L308.43,259A11.9,11.9,0,0,1,310,264.93Z" transform="translate(-253.54 -220.37)"/><path class="cls-12" d="M300.8,269.6l3.26,5.66a12,12,0,0,0,4.37-4.37l-5.66-3.26A5.32,5.32,0,0,1,300.8,269.6Z" transform="translate(-253.54 -220.37)"/><path class="cls-13" d="M300.8,260.25l3.26-5.65a11.91,11.91,0,0,0-6-1.6v6.53A5.39,5.39,0,0,1,300.8,260.25Z" transform="translate(-253.54 -220.37)"/><path class="cls-14" d="M303.5,264.93H310a11.9,11.9,0,0,0-1.59-6l-5.66,3.26A5.37,5.37,0,0,1,303.5,264.93Z" transform="translate(-253.54 -220.37)"/><path class="cls-15" d="M302.77,262.23l5.66-3.26a12,12,0,0,0-4.37-4.37l-3.26,5.65A5.42,5.42,0,0,1,302.77,262.23Z" transform="translate(-253.54 -220.37)"/><path class="cls-16" d="M302.77,267.63l5.66,3.26a11.9,11.9,0,0,0,1.59-6H303.5A5.4,5.4,0,0,1,302.77,267.63Z" transform="translate(-253.54 -220.37)"/><polygon class="cls-17" points="44.55 44.55 44.55 44.55 44.55 44.55 44.55 44.55"/><polygon class="cls-17" points="44.55 44.55 44.55 44.55 44.55 44.55 44.55 44.55"/><path class="cls-18" d="M285.61,243.3A24.81,24.81,0,0,1,298.1,240v-6.52a31.5,31.5,0,0,0-27.29,47.25l5.65-3.26,5.66-3.26,5.65-3.27,5.65-3.26,4.68-2.7h-25a24.93,24.93,0,0,1,12.49-21.63Z" transform="translate(-253.54 -220.37)"/><path class="cls-19" d="M282.34,237.64a31.4,31.4,0,0,1,15.76-4.21V226.9a37.81,37.81,0,0,0-19,5.09,38.23,38.23,0,0,0-13.92,13.92,38.08,38.08,0,0,0,0,38,38.23,38.23,0,0,0,13.92,13.92l3.26-5.66,3.27-5.65,3.26-5.65,3.26-5.65,3.27-5.66,2.7-4.67-4.68,2.7-5.65,3.26-5.65,3.27-5.66,3.26-5.65,3.26a31.52,31.52,0,0,1,0-31.51A31.71,31.71,0,0,1,282.34,237.64Z" transform="translate(-253.54 -220.37)"/><polygon class="cls-17" points="44.55 44.55 44.55 44.55 44.55 44.55 44.55 44.55"/><polygon class="cls-17" points="44.55 44.55 44.55 44.55 44.55 44.55 44.55 44.55"/><polygon class="cls-17" points="44.55 44.55 44.55 44.55 44.55 44.55 44.55 44.55"/><polygon class="cls-17" points="44.55 44.55 44.55 44.55 44.55 44.55 44.55 44.55"/><path class="cls-20" d="M275.82,226.34a44.76,44.76,0,0,0-16.31,16.31,44.56,44.56,0,0,0,0,44.56,44.52,44.52,0,0,0,38.59,22.27V264.93l-2.7,4.67-3.27,5.66-3.26,5.65-3.26,5.65-3.27,5.65-3.26,5.66A38.23,38.23,0,0,1,265.16,284a38.08,38.08,0,0,1,0-38A38.23,38.23,0,0,1,279.08,232a37.81,37.81,0,0,1,19-5.09v-6.53A44.35,44.35,0,0,0,275.82,226.34Z" transform="translate(-253.54 -220.37)"/><path class="cls-21" d="M298.1,246.48a18.44,18.44,0,0,0-16,9.22l5.65,3.27,5.65,3.26,4.68,2.7-2.7-4.68-3.27-5.65a11.94,11.94,0,0,1,6-1.6Z" transform="translate(-253.54 -220.37)"/><path class="cls-22" d="M300.8,260.25a5.39,5.39,0,0,0-2.7-.72v5.4Z" transform="translate(-253.54 -220.37)"/><path class="cls-23" d="M292.13,254.6l3.27,5.65,2.7,4.68V253A11.94,11.94,0,0,0,292.13,254.6Z" transform="translate(-253.54 -220.37)"/><path class="cls-14" d="M298.1,264.93v5.4a5.4,5.4,0,0,0,2.7-.73Z" transform="translate(-253.54 -220.37)"/><path class="cls-8" d="M288.87,249a18.37,18.37,0,0,1,9.23-2.47V240a24.81,24.81,0,0,0-12.49,3.35,24.93,24.93,0,0,0-12.49,21.63h25l-4.68-2.7L287.77,259l-5.65-3.27A18.51,18.51,0,0,1,288.87,249Z" transform="translate(-253.54 -220.37)"/><path class="cls-24" d="M298.1,264.93l4.67-2.7a5.42,5.42,0,0,0-2-2Z" transform="translate(-253.54 -220.37)"/><path class="cls-25" d="M298.1,264.93h0l4.67,2.7a5.4,5.4,0,0,0,.73-2.7Z" transform="translate(-253.54 -220.37)"/><path class="cls-26" d="M300.8,269.6a5.32,5.32,0,0,0,2-2l-4.67-2.7Z" transform="translate(-253.54 -220.37)"/><path class="cls-25" d="M303.5,264.93a5.37,5.37,0,0,0-.73-2.7l-4.67,2.7Z" transform="translate(-253.54 -220.37)"/></svg>