<?xml version="1.0" encoding="iso-8859-1"?>
<!-- Generator: Adobe Illustrator 19.1.0, SVG Export Plug-In . SVG Version: 6.00 Build 0)  -->
<svg version="1.1" id="Layer_1" xmlns="http://www.w3.org/2000/svg" xmlns:xlink="http://www.w3.org/1999/xlink" x="0px" y="0px"
	 viewBox="0 0 300 76.341" style="enable-background:new 0 0 300 76.341;" xml:space="preserve">
<g>
	<path style="fill:#98C0E3;" d="M45.679,41.193c0,2.871,0.431,4.593,1.722,5.096c0.215,0.215,0.215,0.646-0.072,0.86
		c-0.861,0-2.153,0.288-3.516,0.646c-3.804,1.004-8.971,1.866-12.846,1.866c-8.54,0-16.362-2.368-21.888-7.966
		c-4.306-4.306-6.602-9.975-6.602-16.29c0-6.1,2.009-12.272,6.459-17.008C13.743,3.373,20.848,0,31.684,0
		c4.091,0,7.894,0.789,9.114,1.076c1.364,0.287,3.588,0.789,4.449,0.646c0,2.369,0.431,6.1,1.076,10.406
		c-0.215,0.574-1.507,0.646-1.938,0.216C42.377,4.593,36.995,2.153,29.675,2.153c-13.922,0-20.023,9.904-20.023,20.668
		c0,13.779,7.105,24.616,21.53,24.616c4.449,0,7.105-0.933,7.894-2.153c0.359-0.502,0.717-1.795,0.717-4.091v-2.871
		c0-6.028-0.215-6.459-4.664-6.961l-3.158-0.359c-0.574-0.287-0.502-1.579,0-1.794c2.081,0.144,6.029,0.215,10.262,0.215
		c2.799,0,5.239-0.072,7.607-0.215c0.502,0.287,0.574,1.364,0.072,1.794l-1.148,0.144c-3.014,0.359-3.086,2.368-3.086,6.028V41.193z
		"/>
	<path style="fill:#98C0E3;" d="M61.964,10.478c0-5.311-0.287-6.674-3.517-6.961l-2.296-0.215c-0.574-0.431-0.502-1.507,0.072-1.794
		c3.876-0.359,8.756-0.574,15.43-0.574c4.521,0,8.827,0.359,12.057,2.009c3.086,1.507,5.454,4.378,5.454,8.971
		c0,5.167-3.014,7.822-7.32,9.832c0,0.718,0.574,0.933,1.364,1.076c3.875,0.718,9.617,4.306,9.617,11.985
		c0,8.326-6.172,13.922-19.09,13.922c-2.081,0-5.598-0.214-8.612-0.214c-3.158,0-5.598,0.143-8.253,0.214
		c-0.431-0.214-0.574-1.363-0.144-1.793l1.292-0.216c3.804-0.646,3.947-1.435,3.947-8.97V10.478z M67.849,20.023
		c0,2.009,0.072,2.153,3.732,2.009c7.32-0.287,11.267-2.44,11.267-9.186c0-7.033-5.239-9.688-10.693-9.688
		c-1.579,0-2.656,0.144-3.301,0.431c-0.718,0.215-1.005,0.574-1.005,1.866V20.023z M67.849,36.672c0,2.584,0.144,6.243,1.507,7.822
		c1.364,1.651,3.517,2.01,5.669,2.01c6.387,0,11.267-2.87,11.267-10.047c0-5.669-2.871-12.272-14.281-12.272
		c-3.876,0-4.163,0.431-4.163,1.866V36.672z"/>
	<path style="fill:#98C0E3;" d="M105.378,11.913c0-7.464-0.144-8.54-4.378-9.042l-1.148-0.144c-0.431-0.287-0.287-1.579,0.144-1.794
		c3.086,0.144,5.526,0.216,8.468,0.216h13.492c4.593,0,8.827,0,9.689-0.216c0.43,1.22,0.861,6.387,1.148,9.545
		c-0.287,0.43-1.435,0.574-1.794,0.144c-1.076-3.373-1.722-5.885-5.454-6.818c-1.507-0.359-3.804-0.431-6.961-0.431h-5.167
		c-2.153,0-2.153,0.144-2.153,2.871v14.353c0,2.009,0.216,2.009,2.368,2.009h4.162c3.014,0,5.239-0.144,6.1-0.431
		c0.861-0.287,1.364-0.718,1.722-2.512l0.574-2.943c0.359-0.43,1.579-0.43,1.866,0.072c0,1.722-0.287,4.521-0.287,7.248
		c0,2.584,0.287,5.311,0.287,6.889c-0.287,0.502-1.507,0.502-1.866,0.072l-0.646-2.799c-0.287-1.292-0.789-2.368-2.225-2.727
		c-1.004-0.287-2.727-0.359-5.526-0.359h-4.162c-2.153,0-2.368,0.072-2.368,1.938v10.119c0,3.804,0.216,6.243,1.364,7.464
		c0.861,0.86,2.368,1.651,8.684,1.651c5.526,0,7.607-0.287,9.186-1.076c1.292-0.718,3.229-3.23,5.095-6.961
		c0.503-0.359,1.507-0.144,1.794,0.502c-0.502,2.512-2.296,8.038-3.229,9.975c-6.459-0.143-12.846-0.214-19.233-0.214h-6.459
		c-3.086,0-5.526,0.071-9.76,0.214c-0.43-0.214-0.574-1.363-0.144-1.793l2.369-0.216c4.091-0.358,4.449-1.435,4.449-8.97V11.913z"/>
	<path style="fill:#98C0E3;" d="M10.803,74.19c0,0.717,0.108,1.148,0.431,1.274c0.054,0.054,0.054,0.162-0.018,0.215
		c-0.215,0-0.538,0.072-0.879,0.162c-0.951,0.251-2.243,0.466-3.212,0.466c-2.136,0-4.092-0.592-5.473-1.991
		C0.574,73.239,0,71.821,0,70.241c0-1.524,0.503-3.068,1.615-4.252c1.203-1.257,2.979-2.099,5.688-2.099
		c1.023,0,1.974,0.197,2.279,0.269c0.341,0.072,0.897,0.198,1.113,0.162c0,0.592,0.108,1.526,0.269,2.603
		c-0.054,0.143-0.377,0.162-0.485,0.054c-0.502-1.938-1.848-2.548-3.679-2.548c-3.481,0-5.007,2.476-5.007,5.168
		c0,3.445,1.776,6.155,5.383,6.155c1.113,0,1.777-0.234,1.974-0.538c0.09-0.126,0.179-0.449,0.179-1.023v-0.717
		c0-1.509-0.054-1.616-1.166-1.741l-0.789-0.09c-0.144-0.072-0.126-0.395,0-0.449c0.52,0.035,1.507,0.054,2.566,0.054
		c0.7,0,1.31-0.018,1.902-0.054c0.126,0.072,0.144,0.341,0.018,0.449l-0.287,0.036c-0.754,0.09-0.772,0.592-0.772,1.507V74.19z"/>
	<path style="fill:#98C0E3;" d="M14.982,68.48c0-1.581-0.092-1.65-0.963-1.833l-0.321-0.069c-0.161-0.091-0.138-0.481,0.046-0.572
		c0.665,0.045,1.375,0.068,2.132,0.068h3.254c1.008,0,1.925-0.023,2.132-0.068c0.023,0.274,0.137,1.352,0.252,2.338
		c-0.092,0.183-0.458,0.205-0.596,0.045c-0.137-0.596-0.275-0.893-0.413-1.1c-0.366-0.55-1.398-0.55-1.948-0.55h-1.008
		c-0.802,0-0.825,0.022-0.825,0.733v2.544c0,0.413,0,0.458,0.436,0.458h1.077c1.215,0,1.33-0.183,1.512-0.871l0.115-0.435
		c0.114-0.161,0.458-0.137,0.573,0.046c-0.046,0.665-0.046,1.077-0.046,1.604c0,0.573,0,0.986,0.046,1.651
		c-0.114,0.183-0.458,0.206-0.573,0.046l-0.115-0.435c-0.183-0.688-0.298-0.872-1.512-0.872h-1.077c-0.436,0-0.436,0.07-0.436,0.528
		v1.651c0,0.687,0.046,1.398,0.252,1.65c0.206,0.229,0.619,0.32,1.925,0.32c1.467,0,2.314-0.068,2.979-1.902
		c0.161-0.16,0.527-0.115,0.596,0.091c-0.114,0.964-0.435,2.109-0.687,2.544c-1.444-0.046-2.659-0.068-3.896-0.068h-2.017
		c-0.734,0-1.444,0.022-2.544,0.068c-0.183-0.068-0.206-0.458-0.046-0.572l0.619-0.069c0.985-0.115,1.077-0.252,1.077-1.834V68.48z"
		/>
	<path style="fill:#98C0E3;" d="M33.135,69.603c0-2.291-0.137-2.887-0.985-2.956l-0.733-0.069c-0.161-0.137-0.138-0.458,0.046-0.572
		c0.848,0.045,1.375,0.068,2.04,0.068c0.664,0,1.168-0.023,1.902-0.068c0.183,0.114,0.183,0.457,0.023,0.572l-0.687,0.069
		c-0.596,0.069-0.78,0.687-0.78,2.956v3.85c0,0.458,0,2.314,0.069,2.659c-0.069,0.137-0.275,0.251-0.481,0.206
		c-0.252-0.321-0.711-0.802-2.132-2.338l-3.483-3.713c-0.871-0.916-1.467-1.512-1.765-1.765c-0.092,0-0.092,0.252-0.092,0.963v3.026
		c0,2.291,0.138,2.887,0.985,2.956l0.733,0.069c0.183,0.137,0.138,0.457-0.046,0.572c-0.848-0.046-1.375-0.068-2.04-0.068
		c-0.665,0-1.1,0.022-1.902,0.068c-0.183-0.091-0.183-0.458-0.023-0.572l0.688-0.069c0.596-0.069,0.779-0.688,0.779-2.956v-4.103
		c0-0.755-0.023-1.076-0.481-1.421c-0.183-0.137-0.619-0.274-0.848-0.32l-0.344-0.069c-0.161-0.137-0.161-0.481,0.046-0.572
		c0.871,0.068,1.49,0.068,1.971,0.068c0.321,0,0.642-0.023,0.917-0.068c0.458,0.87,1.306,1.856,2.246,2.819l2.154,2.223
		c0.504,0.504,1.833,1.949,2.086,2.132c0.137-0.047,0.137-0.367,0.137-0.917V69.603z"/>
	<path style="fill:#98C0E3;" d="M48.217,71.001c0,3.095-2.337,5.34-5.569,5.34c-3.553,0-5.661-2.314-5.661-5.202
		c0-3.048,2.337-5.386,5.661-5.386C46.338,65.753,48.217,68.205,48.217,71.001z M39.028,70.773c0,2.359,1.077,4.903,3.735,4.903
		c1.742,0,3.415-1.191,3.415-4.331c0-2.453-1.169-4.927-3.69-4.927C40.838,66.418,39.028,67.541,39.028,70.773z"/>
	<path style="fill:#98C0E3;" d="M56.035,71.987c0.161,0.299,0.733,1.33,0.825,1.399c0.091-0.047,0.504-0.78,0.94-1.604l1.146-2.201
		c1.1-2.109,1.215-2.498,1.582-3.575c0.504,0.045,0.963,0.068,1.329,0.068c0.55,0,1.215-0.023,1.879-0.068
		c0.206,0.068,0.229,0.457,0.069,0.572L63.3,66.647c-1.054,0.137-1.1,0.573-1.1,1.925c0,2.428,0,4.377,0.114,5.752
		c0.046,0.504,0.046,1.054,0.756,1.123l0.665,0.069c0.161,0.091,0.161,0.481-0.023,0.572c-0.825-0.046-1.719-0.068-2.292-0.068
		c-0.664,0-1.375,0.022-2.017,0.068c-0.16-0.115-0.183-0.481-0.023-0.572l0.504-0.069c0.733-0.092,0.733-0.275,0.733-1.192v-5.294
		c0-0.275,0-0.618-0.069-0.665c-0.069,0-0.665,1.147-0.985,1.742l-1.398,2.636c-0.183,0.344-1.375,2.727-1.627,3.46
		c-0.114,0.092-0.298,0.092-0.435,0c-0.252-0.824-0.963-2.292-1.352-3.047l-1.49-2.889c-0.252-0.504-0.733-1.719-0.917-1.787
		c-0.091,0.115-0.114,1.651-0.137,2.291c-0.023,0.917-0.046,1.88-0.046,3.004c0,1.168,0.023,1.672,0.664,1.741l0.756,0.069
		c0.161,0.091,0.138,0.481-0.023,0.572c-0.596-0.046-1.26-0.068-1.879-0.068c-0.504,0-1.192,0.022-1.902,0.068
		c-0.161-0.091-0.183-0.458,0-0.572l0.481-0.069c0.756-0.115,0.825-0.344,0.94-1.146c0.183-1.238,0.321-4.928,0.321-6.486
		c0-0.734-0.252-1.077-1.031-1.169l-0.55-0.069c-0.137-0.115-0.16-0.481,0.046-0.572c0.619,0.045,1.146,0.068,1.765,0.068
		c0.458,0,0.94,0,1.673-0.068c0,1.008,0.412,1.741,1.192,3.254L56.035,71.987z"/>
	<path style="fill:#98C0E3;" d="M66.971,68.48c0-1.581-0.092-1.65-0.963-1.833l-0.321-0.069c-0.161-0.091-0.138-0.481,0.046-0.572
		c0.664,0.045,1.375,0.068,2.131,0.068h3.255c1.008,0,1.925-0.023,2.132-0.068c0.023,0.274,0.137,1.352,0.252,2.338
		c-0.092,0.183-0.458,0.205-0.596,0.045c-0.137-0.596-0.275-0.893-0.413-1.1c-0.366-0.55-1.398-0.55-1.948-0.55h-1.008
		c-0.802,0-0.825,0.022-0.825,0.733v2.544c0,0.413,0,0.458,0.436,0.458h1.077c1.215,0,1.33-0.183,1.512-0.871l0.115-0.435
		c0.114-0.161,0.458-0.137,0.573,0.046c-0.046,0.665-0.046,1.077-0.046,1.604c0,0.573,0,0.986,0.046,1.651
		c-0.114,0.183-0.458,0.206-0.573,0.046l-0.115-0.435c-0.183-0.688-0.298-0.872-1.512-0.872h-1.077c-0.436,0-0.436,0.07-0.436,0.528
		v1.651c0,0.687,0.046,1.398,0.252,1.65c0.206,0.229,0.619,0.32,1.925,0.32c1.467,0,2.314-0.068,2.979-1.902
		c0.161-0.16,0.527-0.115,0.596,0.091c-0.115,0.964-0.436,2.109-0.688,2.544c-1.444-0.046-2.659-0.068-3.896-0.068h-2.017
		c-0.733,0-1.443,0.022-2.544,0.068c-0.183-0.068-0.206-0.458-0.046-0.572l0.619-0.069c0.985-0.115,1.077-0.252,1.077-1.834V68.48z"
		/>
	<path style="fill:#98C0E3;" d="M81.616,66.51c0-1.329-0.072-1.669-0.879-1.741l-0.574-0.054c-0.144-0.108-0.126-0.378,0.018-0.449
		c0.969-0.09,2.189-0.143,3.858-0.143c1.13,0,2.207,0.09,3.015,0.502c0.772,0.377,1.364,1.094,1.364,2.242
		c0,1.293-0.754,1.956-1.831,2.459c0,0.179,0.144,0.234,0.341,0.27c0.969,0.179,2.405,1.076,2.405,2.997
		c0,2.081-1.543,3.481-4.773,3.481c-0.521,0-1.4-0.054-2.154-0.054c-0.789,0-1.4,0.035-2.063,0.054
		c-0.108-0.054-0.144-0.342-0.036-0.449l0.323-0.055c0.951-0.162,0.987-0.358,0.987-2.242V66.51z M83.087,68.896
		c0,0.502,0.018,0.538,0.933,0.502c1.83-0.072,2.818-0.61,2.818-2.297c0-1.759-1.31-2.423-2.674-2.423
		c-0.395,0-0.664,0.036-0.825,0.108c-0.18,0.054-0.251,0.143-0.251,0.466V68.896z M83.087,73.06c0,0.645,0.036,1.561,0.377,1.955
		c0.341,0.413,0.879,0.502,1.418,0.502c1.597,0,2.818-0.717,2.818-2.512c0-1.417-0.718-3.069-3.571-3.069
		c-0.969,0-1.04,0.108-1.04,0.466V73.06z"/>
	<path style="fill:#98C0E3;" d="M92.579,68.48c0-1.581-0.092-1.672-1.077-1.833l-0.435-0.069c-0.161-0.115-0.138-0.504,0.046-0.572
		c0.893,0.045,1.604,0.068,2.337,0.068s1.444-0.023,2.338-0.068c0.183,0.068,0.206,0.457,0.046,0.572l-0.436,0.069
		c-0.985,0.161-1.077,0.252-1.077,1.833v5.134c0,1.582,0.091,1.673,1.077,1.834l0.436,0.069c0.161,0.114,0.138,0.504-0.046,0.572
		c-0.871-0.046-1.627-0.068-2.338-0.068c-0.733,0-1.444,0.022-2.337,0.068c-0.183-0.068-0.206-0.458-0.046-0.572l0.435-0.069
		c0.985-0.161,1.077-0.252,1.077-1.834V68.48z"/>
	<path style="fill:#98C0E3;" d="M108.829,71.001c0,3.095-2.337,5.34-5.569,5.34c-3.553,0-5.661-2.314-5.661-5.202
		c0-3.048,2.337-5.386,5.661-5.386C106.95,65.753,108.829,68.205,108.829,71.001z M99.639,70.773c0,2.359,1.077,4.903,3.735,4.903
		c1.742,0,3.415-1.191,3.415-4.331c0-2.453-1.169-4.927-3.69-4.927C101.45,66.418,99.639,67.541,99.639,70.773z"/>
	<path style="fill:#98C0E3;" d="M112.11,68.48c0-1.581-0.092-1.672-1.077-1.833l-0.435-0.069c-0.161-0.115-0.138-0.504,0.046-0.572
		c0.894,0.045,1.604,0.068,2.337,0.068s1.444-0.023,2.2-0.068c0.183,0.068,0.206,0.457,0.046,0.572l-0.298,0.069
		c-0.963,0.229-1.077,0.252-1.077,1.833v4.928c0,0.711,0.046,1.352,0.252,1.582c0.206,0.206,0.573,0.366,1.765,0.366
		c1.398,0,2.246-0.068,2.911-1.902c0.161-0.16,0.527-0.115,0.596,0.091c-0.115,0.964-0.436,2.109-0.688,2.544
		c-1.444-0.046-2.659-0.068-3.827-0.068h-1.879c-0.733,0-1.443,0.022-2.337,0.068c-0.183-0.068-0.206-0.458-0.046-0.572l0.435-0.069
		c0.985-0.161,1.077-0.252,1.077-1.834V68.48z"/>
	<path style="fill:#98C0E3;" d="M131.34,71.001c0,3.095-2.338,5.34-5.569,5.34c-3.553,0-5.661-2.314-5.661-5.202
		c0-3.048,2.337-5.386,5.661-5.386C129.461,65.753,131.34,68.205,131.34,71.001z M122.15,70.773c0,2.359,1.077,4.903,3.735,4.903
		c1.742,0,3.415-1.191,3.415-4.331c0-2.453-1.169-4.927-3.69-4.927C123.96,66.418,122.15,67.541,122.15,70.773z"/>
	<path style="fill:#98C0E3;" d="M141.014,73.957c0-1.054-0.023-1.191-1.054-1.374l-0.733-0.138
		c-0.161-0.115-0.161-0.435,0.023-0.572c0.917,0.045,1.925,0.068,2.589,0.068c0.642,0,1.398-0.023,1.948-0.068
		c0.183,0.114,0.206,0.435,0.069,0.572l-0.413,0.091c-0.596,0.138-0.688,0.275-0.688,1.261v0.641c0,0.55,0.046,0.893,0.367,1.054
		c0.091,0.068,0.091,0.274-0.023,0.321c-0.253,0-0.733,0.137-1.375,0.251c-0.619,0.115-1.421,0.275-2.292,0.275
		c-2.04,0-3.713-0.482-4.928-1.696c-0.963-0.962-1.421-2.291-1.421-3.482c0-1.284,0.458-2.59,1.443-3.599
		c1.055-1.076,2.613-1.81,5.065-1.81c1.26,0,2.384,0.321,3.071,0.459c0.023,0.457,0.069,1.374,0.206,2.589
		c-0.115,0.206-0.458,0.23-0.596,0.023c-0.596-1.81-1.581-2.406-3.254-2.406c-2.406,0-3.896,1.855-3.896,4.537
		c0,2.819,1.742,4.72,4.515,4.72c1.215,0,1.375-0.229,1.375-1.146V73.957z"/>
	<path style="fill:#98C0E3;" d="M148.511,72.973c0-0.711-0.069-0.893-0.642-1.949l-1.673-3.093c-0.481-0.917-0.71-1.123-1.307-1.238
		l-0.596-0.115c-0.161-0.137-0.115-0.504,0.069-0.572c0.756,0.045,1.283,0.068,2.109,0.068c0.688,0,1.215-0.023,1.948-0.068
		c0.183,0.091,0.252,0.457,0.023,0.572l-0.321,0.069c-0.504,0.114-0.573,0.252-0.206,0.963l0.848,1.627
		c0.367,0.687,0.688,1.306,1.031,1.902c0.367-0.619,0.71-1.169,1.1-1.902l0.917-1.674c0.344-0.64,0.389-0.847-0.161-0.916
		l-0.481-0.069c-0.206-0.115-0.183-0.481,0.046-0.572c0.688,0.045,1.215,0.068,1.742,0.068c0.504,0,0.985-0.023,1.627-0.068
		c0.183,0.068,0.229,0.457,0.046,0.572l-0.55,0.115c-0.711,0.137-0.825,0.274-1.535,1.421l-1.421,2.291
		c-0.825,1.306-0.871,1.536-0.871,2.201v1.237c0,1.353,0.092,1.49,1.077,1.605l0.573,0.069c0.161,0.114,0.137,0.504-0.046,0.572
		c-1.008-0.046-1.765-0.068-2.475-0.068c-0.733,0-1.444,0.022-2.475,0.068c-0.183-0.068-0.206-0.458-0.046-0.572l0.573-0.069
		c0.985-0.115,1.077-0.252,1.077-1.605V72.973z"/>
	<path style="fill:#98C0E3;" d="M163.846,72.468c-0.527,0-0.596,0.023-0.779,0.55l-0.527,1.467
		c-0.252,0.734-0.183,0.825,0.252,0.917l0.619,0.115c0.183,0.114,0.16,0.527-0.069,0.572c-0.573-0.046-1.169-0.068-1.81-0.068
		c-0.642,0-1.192,0.045-1.604,0.068c-0.206-0.091-0.206-0.458-0.046-0.572l0.527-0.115c0.71-0.161,0.963-0.413,1.421-1.512
		l2.2-5.271c0.39-0.94,0.55-1.489,0.596-1.925c0.413-0.161,0.848-0.596,0.963-0.871c0.183-0.069,0.321-0.022,0.367,0.115
		c0.091,0.229,0.458,1.421,0.985,2.819l2.062,5.478c0.275,0.756,0.481,1.054,1.307,1.215l0.366,0.069
		c0.206,0.114,0.161,0.527-0.069,0.572c-0.596-0.046-1.123-0.068-1.902-0.068c-0.825,0-1.49,0.022-2.062,0.068
		c-0.229-0.068-0.252-0.481-0.046-0.572l0.458-0.069c0.596-0.092,0.573-0.229,0.298-0.939l-0.55-1.49
		c-0.183-0.527-0.252-0.55-0.779-0.55H163.846z M165.657,71.734c0.596,0,0.664-0.046,0.412-0.711l-0.711-1.948
		c-0.183-0.528-0.275-0.711-0.344-0.825h-0.046c-0.069,0.092-0.161,0.298-0.367,0.78l-0.825,2.04
		c-0.252,0.618-0.206,0.664,0.298,0.664H165.657z"/>
	<path style="fill:#98C0E3;" d="M180.877,69.603c0-2.291-0.138-2.887-0.986-2.956l-0.733-0.069
		c-0.161-0.137-0.138-0.458,0.046-0.572c0.848,0.045,1.374,0.068,2.039,0.068c0.665,0,1.169-0.023,1.903-0.068
		c0.183,0.114,0.183,0.457,0.022,0.572l-0.687,0.069c-0.596,0.069-0.78,0.687-0.78,2.956v3.85c0,0.458,0,2.314,0.069,2.659
		c-0.069,0.137-0.275,0.251-0.482,0.206c-0.252-0.321-0.711-0.802-2.131-2.338l-3.484-3.713c-0.87-0.916-1.467-1.512-1.765-1.765
		c-0.091,0-0.091,0.252-0.091,0.963v3.026c0,2.291,0.137,2.887,0.986,2.956l0.733,0.069c0.184,0.137,0.137,0.457-0.046,0.572
		c-0.848-0.046-1.375-0.068-2.04-0.068c-0.664,0-1.1,0.022-1.902,0.068c-0.183-0.091-0.183-0.458-0.023-0.572l0.688-0.069
		c0.596-0.069,0.779-0.688,0.779-2.956v-4.103c0-0.755-0.022-1.076-0.481-1.421c-0.183-0.137-0.619-0.274-0.848-0.32l-0.345-0.069
		c-0.16-0.137-0.16-0.481,0.047-0.572c0.87,0.068,1.489,0.068,1.971,0.068c0.32,0,0.641-0.023,0.916-0.068
		c0.458,0.87,1.307,1.856,2.246,2.819l2.155,2.223c0.504,0.504,1.833,1.949,2.085,2.132c0.138-0.047,0.138-0.367,0.138-0.917V69.603
		z"/>
	<path style="fill:#98C0E3;" d="M186.264,68.755c0-1.49-0.022-1.879-0.55-1.948l-0.687-0.091c-0.206-0.069-0.183-0.504,0.022-0.573
		c1.284-0.092,2.568-0.137,4.424-0.137c1.284,0,2.406,0.137,3.483,0.504c2.086,0.711,3.163,2.383,3.163,4.491
		c0,1.811-0.94,3.484-2.774,4.425c-1.031,0.527-2.314,0.71-3.46,0.71c-1.032,0-2.062-0.114-2.751-0.114
		c-0.733,0-1.443,0.022-2.338,0.068c-0.183-0.068-0.206-0.458-0.046-0.572l0.436-0.069c0.985-0.161,1.076-0.252,1.076-1.834V68.755z
		 M188.006,73.27c0,1.467,0.229,2.2,1.971,2.2c2.751,0,4.102-1.719,4.102-4.514c0-2.819-1.971-4.286-4.561-4.286
		c-0.756,0-1.191,0.091-1.375,0.253c-0.137,0.091-0.137,0.389-0.137,0.893V73.27z"/>
	<path style="fill:#98C0E3;" d="M203.775,66.868c0-1.866-0.036-2.135-1.095-2.261l-0.287-0.036
		c-0.107-0.072-0.071-0.394,0.036-0.448c0.772,0.035,1.382,0.054,2.118,0.054h3.373c1.148,0,2.207,0,2.423-0.054
		c0.108,0.305,0.215,1.596,0.287,2.387c-0.072,0.107-0.359,0.143-0.449,0.035c-0.269-0.843-0.43-1.472-1.364-1.704
		c-0.377-0.09-0.951-0.108-1.741-0.108h-1.292c-0.538,0-0.538,0.036-0.538,0.718v3.59c0,0.502,0.054,0.502,0.592,0.502h1.041
		c0.753,0,1.31-0.037,1.525-0.108c0.215-0.072,0.341-0.18,0.43-0.628l0.144-0.736c0.09-0.108,0.394-0.108,0.466,0.018
		c0,0.43-0.072,1.131-0.072,1.812c0,0.646,0.072,1.328,0.072,1.723c-0.072,0.127-0.377,0.127-0.466,0.018l-0.162-0.7
		c-0.072-0.323-0.198-0.593-0.557-0.682c-0.251-0.071-0.681-0.09-1.381-0.09h-1.041c-0.538,0-0.592,0.018-0.592,0.484v2.531
		c0,0.952,0.054,1.561,0.341,1.867c0.215,0.215,0.593,0.413,2.171,0.413c1.382,0,1.903-0.072,2.297-0.269
		c0.323-0.18,0.808-0.808,1.274-1.741c0.126-0.09,0.377-0.036,0.449,0.126c-0.126,0.629-0.574,2.01-0.808,2.495
		c-1.615-0.036-3.212-0.054-4.809-0.054h-1.615c-0.772,0-1.382,0.018-2.441,0.054c-0.107-0.054-0.143-0.342-0.036-0.449l0.593-0.055
		c1.023-0.09,1.112-0.358,1.112-2.242V66.868z"/>
	<path style="fill:#98C0E3;" d="M213.902,68.527c-0.687-1.512-0.779-1.627-1.329-1.766l-0.756-0.183
		c-0.138-0.137-0.161-0.458,0.022-0.572c0.596,0.045,1.353,0.068,2.062,0.068c0.825,0,1.49-0.023,2.224-0.068
		c0.183,0.091,0.205,0.457,0,0.572l-0.482,0.069c-0.596,0.091-0.596,0.389-0.091,1.512l1.123,2.543
		c0.572,1.307,0.963,2.155,1.306,2.911c0.458-0.963,0.848-1.925,1.283-2.888c0.482-1.054,1.123-2.636,1.353-3.299
		c0.161-0.482,0.137-0.642-0.55-0.78l-0.367-0.069c-0.206-0.137-0.137-0.435,0.046-0.572c0.665,0.045,1.26,0.068,1.879,0.068
		c0.733,0,1.26-0.023,1.627-0.068c0.229,0.091,0.274,0.457,0.114,0.572l-0.641,0.138c-0.687,0.137-0.825,0.343-1.558,1.902
		l-1.742,3.735c-0.687,1.467-1.352,3.14-1.627,3.896c-0.068,0.069-0.16,0.091-0.274,0.091c-0.091,0-0.183-0.022-0.275-0.091
		c-0.206-0.596-0.458-1.33-0.756-1.971L213.902,68.527z"/>
	<path style="fill:#98C0E3;" d="M234.576,71.001c0,3.095-2.338,5.34-5.569,5.34c-3.553,0-5.661-2.314-5.661-5.202
		c0-3.048,2.338-5.386,5.661-5.386C232.697,65.753,234.576,68.205,234.576,71.001z M225.386,70.773c0,2.359,1.077,4.903,3.736,4.903
		c1.741,0,3.414-1.191,3.414-4.331c0-2.453-1.169-4.927-3.69-4.927C227.197,66.418,225.386,67.541,225.386,70.773z"/>
	<path style="fill:#98C0E3;" d="M237.855,68.48c0-1.581-0.091-1.672-1.076-1.833l-0.436-0.069c-0.16-0.115-0.137-0.504,0.046-0.572
		c0.894,0.045,1.605,0.068,2.338,0.068c0.734,0,1.444-0.023,2.201-0.068c0.183,0.068,0.206,0.457,0.046,0.572l-0.298,0.069
		c-0.963,0.229-1.077,0.252-1.077,1.833v4.928c0,0.711,0.046,1.352,0.252,1.582c0.206,0.206,0.573,0.366,1.765,0.366
		c1.398,0,2.246-0.068,2.911-1.902c0.16-0.16,0.527-0.115,0.596,0.091c-0.115,0.964-0.436,2.109-0.688,2.544
		c-1.443-0.046-2.658-0.068-3.827-0.068h-1.879c-0.733,0-1.443,0.022-2.338,0.068c-0.183-0.068-0.205-0.458-0.046-0.572l0.436-0.069
		c0.985-0.161,1.076-0.252,1.076-1.834V68.48z"/>
	<path style="fill:#98C0E3;" d="M246.636,68.48c0-1.581-0.115-1.626-1.077-1.833l-0.321-0.069c-0.161-0.115-0.137-0.504,0.046-0.572
		c0.78,0.045,1.49,0.068,2.223,0.068c0.734,0,1.444-0.023,2.338-0.068c0.183,0.068,0.206,0.457,0.046,0.572l-0.435,0.069
		c-0.986,0.161-1.077,0.252-1.077,1.833v3.231c0,2.293,0.756,3.85,2.979,3.85c2.062,0,2.957-1.557,2.957-3.827v-2.132
		c0-2.291-0.138-2.819-1.123-2.956l-0.482-0.069c-0.16-0.137-0.137-0.458,0.047-0.572c0.733,0.045,1.26,0.068,1.924,0.068
		c0.665,0,1.169-0.023,1.903-0.068c0.183,0.114,0.183,0.457,0.022,0.572l-0.687,0.069c-0.596,0.069-0.78,0.687-0.78,2.956v2.27
		c0,2.934-1.352,4.468-4.262,4.468c-1.467,0-2.568-0.298-3.255-0.963c-0.687-0.687-0.985-1.742-0.985-3.231V68.48z"/>
	<path style="fill:#98C0E3;" d="M261.58,67.334c0-0.596-0.022-0.596-0.481-0.596h-0.711c-1.399,0-1.994,0.137-2.544,1.719
		c-0.229,0.137-0.481,0.069-0.573-0.114c0.252-0.986,0.505-2.132,0.619-2.705c0.091-0.092,0.321-0.092,0.413,0
		c0.023,0.458,0.344,0.435,1.26,0.435h6.371c0.848,0,1.008-0.023,1.192-0.435c0.16-0.092,0.344-0.046,0.412,0.069
		c-0.183,0.596-0.274,1.81-0.229,2.68c-0.091,0.184-0.481,0.206-0.573,0.023c-0.16-1.489-0.756-1.673-2.132-1.673h-0.779
		c-0.436,0-0.504,0-0.504,0.596v6.28c0,1.582,0.091,1.719,1.077,1.834l0.618,0.069c0.161,0.114,0.138,0.504-0.046,0.572
		c-0.939-0.046-1.81-0.068-2.521-0.068c-0.733,0-1.558,0.022-2.521,0.068c-0.183-0.068-0.206-0.458-0.046-0.572l0.619-0.069
		c0.985-0.115,1.076-0.252,1.076-1.834V67.334z"/>
	<path style="fill:#98C0E3;" d="M270.176,68.48c0-1.581-0.091-1.672-1.076-1.833l-0.436-0.069c-0.16-0.115-0.137-0.504,0.046-0.572
		c0.894,0.045,1.605,0.068,2.338,0.068c0.734,0,1.444-0.023,2.338-0.068c0.183,0.068,0.206,0.457,0.046,0.572l-0.435,0.069
		c-0.986,0.161-1.077,0.252-1.077,1.833v5.134c0,1.582,0.091,1.673,1.077,1.834l0.435,0.069c0.161,0.114,0.137,0.504-0.046,0.572
		c-0.871-0.046-1.627-0.068-2.338-0.068c-0.733,0-1.443,0.022-2.338,0.068c-0.183-0.068-0.205-0.458-0.046-0.572l0.436-0.069
		c0.985-0.161,1.076-0.252,1.076-1.834V68.48z"/>
	<path style="fill:#98C0E3;" d="M286.427,71.001c0,3.095-2.338,5.34-5.569,5.34c-3.553,0-5.661-2.314-5.661-5.202
		c0-3.048,2.338-5.386,5.661-5.386C284.548,65.753,286.427,68.205,286.427,71.001z M277.237,70.773c0,2.359,1.077,4.903,3.736,4.903
		c1.741,0,3.414-1.191,3.414-4.331c0-2.453-1.169-4.927-3.69-4.927C279.048,66.418,277.237,67.541,277.237,70.773z"/>
	<path style="fill:#98C0E3;" d="M297.591,69.603c0-2.291-0.138-2.887-0.986-2.956l-0.733-0.069
		c-0.161-0.137-0.138-0.458,0.046-0.572c0.848,0.045,1.374,0.068,2.039,0.068c0.665,0,1.169-0.023,1.903-0.068
		c0.183,0.114,0.183,0.457,0.022,0.572l-0.687,0.069c-0.596,0.069-0.78,0.687-0.78,2.956v3.85c0,0.458,0,2.314,0.069,2.659
		c-0.069,0.137-0.275,0.251-0.482,0.206c-0.252-0.321-0.71-0.802-2.131-2.338l-3.484-3.713c-0.87-0.916-1.467-1.512-1.765-1.765
		c-0.091,0-0.091,0.252-0.091,0.963v3.026c0,2.291,0.137,2.887,0.986,2.956l0.733,0.069c0.183,0.137,0.137,0.457-0.046,0.572
		c-0.848-0.046-1.375-0.068-2.04-0.068c-0.665,0-1.1,0.022-1.902,0.068c-0.183-0.091-0.183-0.458-0.023-0.572l0.688-0.069
		c0.596-0.069,0.779-0.688,0.779-2.956v-4.103c0-0.755-0.022-1.076-0.481-1.421c-0.183-0.137-0.619-0.274-0.848-0.32l-0.344-0.069
		c-0.161-0.137-0.161-0.481,0.046-0.572c0.87,0.068,1.489,0.068,1.971,0.068c0.32,0,0.641-0.023,0.917-0.068
		c0.457,0.87,1.306,1.856,2.245,2.819l2.154,2.223c0.505,0.504,1.834,1.949,2.086,2.132c0.138-0.047,0.138-0.367,0.138-0.917V69.603
		z"/>
</g>
</svg>
